<svg xmlns="http://www.w3.org/2000/svg" width="1024" height="1024" viewBox="0 0 1024 1024" preserveAspectRatio="xMidYMid slice">
  <rect width="1024" height="1024" fill="#fcfcfc"></rect>
  <polyline points="0,512 70.34357031681073,509.9332707257355 147.22450674777335,499.6760247785251 166.25590531835985,433.1773317395307 247.84750507640547,472.0392907016197 283.80147992227535,475.9747873192156 375.0882835573959,503.48232001048626 391.56799465226493,568.1833923657073 487.77697008505214,498.00931952533176 532.4785466625647,506.82226946111115 612.2416305409911,583.8173343681251 634.6525266409127,492.781840777856 712.6009817599597,521.9873708646153 787.9135326136277,466.338364232942 818.6663068481722,530.3684839006175 874.7668545917177,628.6670368398366 970.3092170300097,536.876439635295 1032.2541144629458,612.8626119982562" fill="none" stroke="#242424" stroke-width="16" stroke-linecap="square"></polyline>
  <polyline points="0,512 73.6863292558361,468.94176399872924 107.1534018685526,396.85497955042723 162.54432764611101,416.4820975541554 232.50686771052645,324.23268320160537 327.31347485951466,323.06389439238905 423.72003344906443,292.2224385550756 522.7889944224038,192.59386498375665 595.031692658618,96.39743809685004 672.4218399544261,132.29595025772412 685.4291315738049,141.1052691128885 784.5550456108932,138.78893439194317 814.0550269801939,41.73796588440942 851.020539392738,-40.258639250267066 870.946186776022,-86.35441148413139 911.5050704251169,-19.206812604768373 1007.4647893220492,-81.76279078070209 1071.2610053527167,-119.12916815671832" fill="none" stroke="#242424" stroke-width="16" stroke-linecap="square"></polyline>
  <polyline points="0,512 71.63653108696472,438.86057685110256 120.3238270976775,515.9781705010041 194.68379809739022,614.9364931884189 237.34122729201508,641.4172188427624 333.6858883723762,546.5250006293829 420.8688813901307,487.3859572522549 506.15446258101844,428.4661302298528 584.3216369908606,377.03475288790776 660.8544841102108,306.5051554514567 685.14459823883,350.0075874922564 784.7760701442531,419.4004728458601 840.501334682417,433.9643907647034 906.3283478100697,476.18459692195137 935.5714025248917,441.7553258696988 1009.5827586130656,486.5868079507152 1070.2809145800645,545.14696636688" fill="none" stroke="#242424" stroke-width="16" stroke-linecap="square"></polyline>
</svg>
